<?xml version="1.0" encoding="UTF-8" standalone="no"?>
<!-- Generator: Adobe Illustrator 19.0.0, SVG Export Plug-In . SVG Version: 6.00 Build 0)  -->

<svg
   xmlns:dc="http://purl.org/dc/elements/1.1/"
   xmlns:cc="http://creativecommons.org/ns#"
   xmlns:rdf="http://www.w3.org/1999/02/22-rdf-syntax-ns#"
   xmlns:svg="http://www.w3.org/2000/svg"
   xmlns="http://www.w3.org/2000/svg"
   xmlns:sodipodi="http://sodipodi.sourceforge.net/DTD/sodipodi-0.dtd"
   xmlns:inkscape="http://www.inkscape.org/namespaces/inkscape"
   version="1.1"
   id="Layer_1"
   x="0px"
   y="0px"
   viewBox="0 0 492 492"
   style="enable-background:new 0 0 492 492;"
   xml:space="preserve"
   sodipodi:docname="left-arrow1.svg"
   inkscape:version="0.92.1 r15371"><metadata
     id="metadata43"><rdf:RDF><cc:Work
         rdf:about=""><dc:format>image/svg+xml</dc:format><dc:type
           rdf:resource="http://purl.org/dc/dcmitype/StillImage" /></cc:Work></rdf:RDF></metadata><defs
     id="defs41" /><sodipodi:namedview
     pagecolor="#ffffff"
     bordercolor="#666666"
     borderopacity="1"
     objecttolerance="10"
     gridtolerance="10"
     guidetolerance="10"
     inkscape:pageopacity="0"
     inkscape:pageshadow="2"
     inkscape:window-width="1920"
     inkscape:window-height="1017"
     id="namedview39"
     showgrid="false"
     inkscape:zoom="0.4796748"
     inkscape:cx="-287.26489"
     inkscape:cy="223.51847"
     inkscape:window-x="-8"
     inkscape:window-y="-8"
     inkscape:window-maximized="1"
     inkscape:current-layer="Layer_1" /><g
     id="g6"
     transform="translate(40)"><g
       id="g4"><path
         d="M 198.608,246.104 382.664,62.04 c 5.068,-5.056 7.856,-11.816 7.856,-19.024 0,-7.212 -2.788,-13.968 -7.856,-19.032 L 366.536,7.864 C 361.476,2.792 354.712,0 347.504,0 340.296,0 333.54,2.792 328.476,7.864 L 109.328,227.008 c -5.084,5.08 -7.868,11.868 -7.848,19.084 -0.02,7.248 2.76,14.028 7.848,19.112 l 218.944,218.932 c 5.064,5.072 11.82,7.864 19.032,7.864 7.208,0 13.964,-2.792 19.032,-7.864 l 16.124,-16.12 c 10.492,-10.492 10.492,-27.572 0,-38.06 z"
         id="path2"
         inkscape:connector-curvature="0" /></g></g><g
     id="g8" /><g
     id="g10" /><g
     id="g12" /><g
     id="g14" /><g
     id="g16" /><g
     id="g18" /><g
     id="g20" /><g
     id="g22" /><g
     id="g24" /><g
     id="g26" /><g
     id="g28" /><g
     id="g30" /><g
     id="g32" /><g
     id="g34" /><g
     id="g36" /><path
     style="opacity:1;fill:#1f4e8e;fill-opacity:1;stroke-width:2.08474565"
     d="m 377.10339,488.77652 c -6.49273,-3.52359 -228.17445,-225.18406 -231.5418,-231.5196 -3.5766,-6.72923 -3.84247,-14.85219 -0.69022,-21.08804 1.26603,-2.50449 53.56499,-55.91764 116.2199,-118.69589 C 380.93993,-2.611575 379.60227,-1.45179 394.06795,2.1788656 c 7.78602,1.954166 31.39518,25.2391274 34.19635,33.7267674 1.67226,5.066947 1.69657,8.93912 0.0867,13.815553 -1.54686,4.685973 -31.1705,35.703602 -96.05993,100.580294 -51.60282,51.59268 -93.8233,94.75084 -93.8233,95.90699 0,1.15616 42.2396,44.31432 93.86578,95.907 65.87079,65.82804 94.36381,95.67015 95.53562,100.05911 2.84847,10.66864 -0.67923,19.59613 -12.56785,31.80519 -15.34777,15.76145 -27.64373,20.52455 -38.19796,14.79675 z"
     id="path4520"
     inkscape:connector-curvature="0" /><rect
     style="opacity:1;fill:#1f4e8e;fill-opacity:1;stroke:#000000;stroke-width:0.65008366;stroke-linecap:round;stroke-linejoin:round;stroke-miterlimit:4;stroke-dasharray:none;stroke-opacity:1"
     id="rect4500"
     width="53.161018"
     height="492.59854"
     x="73.355927"
     y="0.35906941" /></svg>