<?xml version="1.0" encoding="UTF-8" standalone="no"?>
<!-- Generator: Adobe Illustrator 19.0.0, SVG Export Plug-In . SVG Version: 6.00 Build 0)  -->

<svg
   xmlns:dc="http://purl.org/dc/elements/1.1/"
   xmlns:cc="http://creativecommons.org/ns#"
   xmlns:rdf="http://www.w3.org/1999/02/22-rdf-syntax-ns#"
   xmlns:svg="http://www.w3.org/2000/svg"
   xmlns="http://www.w3.org/2000/svg"
   xmlns:sodipodi="http://sodipodi.sourceforge.net/DTD/sodipodi-0.dtd"
   xmlns:inkscape="http://www.inkscape.org/namespaces/inkscape"
   version="1.1"
   id="Layer_1"
   x="0px"
   y="0px"
   viewBox="0 0 492.004 492.004"
   style="enable-background:new 0 0 492.004 492.004;"
   xml:space="preserve"
   sodipodi:docname="right-arrow1.svg"
   inkscape:version="0.92.1 r15371"><metadata
     id="metadata43"><rdf:RDF><cc:Work
         rdf:about=""><dc:format>image/svg+xml</dc:format><dc:type
           rdf:resource="http://purl.org/dc/dcmitype/StillImage" /></cc:Work></rdf:RDF></metadata><defs
     id="defs41" /><sodipodi:namedview
     pagecolor="#ffffff"
     bordercolor="#666666"
     borderopacity="1"
     objecttolerance="10"
     gridtolerance="10"
     guidetolerance="10"
     inkscape:pageopacity="0"
     inkscape:pageshadow="2"
     inkscape:window-width="1920"
     inkscape:window-height="1017"
     id="namedview39"
     showgrid="false"
     inkscape:zoom="0.23983545"
     inkscape:cx="-13.173492"
     inkscape:cy="702.82962"
     inkscape:window-x="-8"
     inkscape:window-y="-8"
     inkscape:window-maximized="1"
     inkscape:current-layer="Layer_1" /><g
     id="g6"
     transform="translate(-28)"><g
       id="g4"><path
         d="M 382.678,226.804 163.73,7.86 C 158.666,2.792 151.906,0 144.698,0 137.49,0 130.73,2.792 125.666,7.86 l -16.124,16.12 c -10.492,10.504 -10.492,27.576 0,38.064 L 293.398,245.9 109.338,429.96 c -5.064,5.068 -7.86,11.824 -7.86,19.028 0,7.212 2.796,13.968 7.86,19.04 l 16.124,16.116 c 5.068,5.068 11.824,7.86 19.032,7.86 7.208,0 13.968,-2.792 19.032,-7.86 L 382.678,265 c 5.076,-5.084 7.864,-11.872 7.848,-19.088 0.016,-7.244 -2.772,-14.028 -7.848,-19.108 z"
         id="path2"
         inkscape:connector-curvature="0" /></g></g><g
     id="g8" /><g
     id="g10" /><g
     id="g12" /><g
     id="g14" /><g
     id="g16" /><g
     id="g18" /><g
     id="g20" /><g
     id="g22" /><g
     id="g24" /><g
     id="g26" /><g
     id="g28" /><g
     id="g30" /><g
     id="g32" /><g
     id="g34" /><g
     id="g36" /><path
     style="opacity:0;fill:#999999;fill-opacity:1;stroke-width:0.5211907"
     d="m 108.5962,490.45276 c -6.01854,-2.11019 -8.24408,-3.82934 -19.33372,-14.93458 -9.32916,-9.34229 -10.97642,-11.23897 -12.58565,-14.49144 -4.28866,-8.66792 -3.64002,-19.35567 1.63155,-26.88308 0.8511,-1.21532 43.31168,-43.95679 94.35683,-94.98106 51.04516,-51.02426 92.80938,-93.00528 92.80938,-93.29115 0,-0.28587 -42.09123,-42.61983 -93.53607,-94.07547 C 78.64623,58.484119 78.39781,58.230091 76.62556,54.33135 74.52934,49.719889 74.08698,47.602862 74.12081,42.343964 c 0.0316,-4.920465 1.47533,-9.677021 4.19201,-13.811553 1.13011,-1.719929 6.7058,-7.723275 12.39043,-13.340769 9.20726,-9.0985277 10.7668,-10.4207269 14.28447,-12.1105491 7.77864,-3.73671232 15.52924,-3.73960946 23.41372,-0.00875 3.85909,1.8260782 5.34556,3.2862898 116.56453,114.5052571 111.21898,111.21898 112.67918,112.70545 114.50526,116.56453 3.62199,7.65441 3.70267,15.43819 0.2402,23.1739 -1.61152,3.60039 -3.69044,5.71845 -113.7395,115.88088 -69.71141,69.78322 -113.25101,112.98974 -115.14734,114.26646 -4.09564,2.75743 -7.41015,3.72294 -13.62875,3.97007 -4.43202,0.17613 -5.71883,0.0294 -8.59964,-0.98068 z"
     id="path4536"
     inkscape:connector-curvature="0" /><path
     style="opacity:0;fill:#999999;fill-opacity:1;stroke-width:0.5211907"
     d="m 108.5962,490.45276 c -6.01854,-2.11019 -8.24408,-3.82934 -19.33372,-14.93458 -9.32916,-9.34229 -10.97642,-11.23897 -12.58565,-14.49144 -4.28866,-8.66792 -3.64002,-19.35567 1.63155,-26.88308 0.8511,-1.21532 43.31168,-43.95679 94.35683,-94.98106 51.04516,-51.02426 92.80938,-93.00528 92.80938,-93.29115 0,-0.28587 -42.09123,-42.61983 -93.53607,-94.07547 C 78.64623,58.484119 78.39781,58.230091 76.62556,54.33135 74.52934,49.719889 74.08698,47.602862 74.12081,42.343964 c 0.0316,-4.920465 1.47533,-9.677021 4.19201,-13.811553 1.13011,-1.719929 6.7058,-7.723275 12.39043,-13.340769 9.20726,-9.0985277 10.7668,-10.4207269 14.28447,-12.1105491 7.77864,-3.73671232 15.52924,-3.73960946 23.41372,-0.00875 3.85909,1.8260782 5.34556,3.2862898 116.56453,114.5052571 111.21898,111.21898 112.67918,112.70545 114.50526,116.56453 3.62199,7.65441 3.70267,15.43819 0.2402,23.1739 -1.61152,3.60039 -3.69044,5.71845 -113.7395,115.88088 -69.71141,69.78322 -113.25101,112.98974 -115.14734,114.26646 -4.09564,2.75743 -7.41015,3.72294 -13.62875,3.97007 -4.43202,0.17613 -5.71883,0.0294 -8.59964,-0.98068 z"
     id="path4538"
     inkscape:connector-curvature="0" /><path
     style="opacity:0;fill:#999999;fill-opacity:1;stroke-width:0.5211907"
     d="m 108.5962,490.45276 c -6.01854,-2.11019 -8.24408,-3.82934 -19.33372,-14.93458 -9.32916,-9.34229 -10.97642,-11.23897 -12.58565,-14.49144 -4.28866,-8.66792 -3.64002,-19.35567 1.63155,-26.88308 0.8511,-1.21532 43.31168,-43.95679 94.35683,-94.98106 51.04516,-51.02426 92.80938,-93.00528 92.80938,-93.29115 0,-0.28587 -42.09123,-42.61983 -93.53607,-94.07547 C 78.64623,58.484119 78.39781,58.230091 76.62556,54.33135 74.52934,49.719889 74.08698,47.602862 74.12081,42.343964 c 0.0316,-4.920465 1.47533,-9.677021 4.19201,-13.811553 1.13011,-1.719929 6.7058,-7.723275 12.39043,-13.340769 9.20726,-9.0985277 10.7668,-10.4207269 14.28447,-12.1105491 7.77864,-3.73671232 15.52924,-3.73960946 23.41372,-0.00875 3.85909,1.8260782 5.34556,3.2862898 116.56453,114.5052571 111.21898,111.21898 112.67918,112.70545 114.50526,116.56453 3.62199,7.65441 3.70267,15.43819 0.2402,23.1739 -1.61152,3.60039 -3.69044,5.71845 -113.7395,115.88088 -69.71141,69.78322 -113.25101,112.98974 -115.14734,114.26646 -4.09564,2.75743 -7.41015,3.72294 -13.62875,3.97007 -4.43202,0.17613 -5.71883,0.0294 -8.59964,-0.98068 z"
     id="path4540"
     inkscape:connector-curvature="0" /><path
     style="opacity:0;fill:#999999;fill-opacity:1;stroke-width:0.5211907"
     d="m 108.5962,490.45276 c -6.01854,-2.11019 -8.24408,-3.82934 -19.33372,-14.93458 -9.32916,-9.34229 -10.97642,-11.23897 -12.58565,-14.49144 -4.28866,-8.66792 -3.64002,-19.35567 1.63155,-26.88308 0.8511,-1.21532 43.31168,-43.95679 94.35683,-94.98106 51.04516,-51.02426 92.80938,-93.00528 92.80938,-93.29115 0,-0.28587 -42.09123,-42.61983 -93.53607,-94.07547 C 78.64623,58.484119 78.39781,58.230091 76.62556,54.33135 74.52934,49.719889 74.08698,47.602862 74.12081,42.343964 c 0.0316,-4.920465 1.47533,-9.677021 4.19201,-13.811553 1.13011,-1.719929 6.7058,-7.723275 12.39043,-13.340769 9.20726,-9.0985277 10.7668,-10.4207269 14.28447,-12.1105491 7.77864,-3.73671232 15.52924,-3.73960946 23.41372,-0.00875 3.85909,1.8260782 5.34556,3.2862898 116.56453,114.5052571 111.21898,111.21898 112.67918,112.70545 114.50526,116.56453 3.62199,7.65441 3.70267,15.43819 0.2402,23.1739 -1.61152,3.60039 -3.69044,5.71845 -113.7395,115.88088 -69.71141,69.78322 -113.25101,112.98974 -115.14734,114.26646 -4.09564,2.75743 -7.41015,3.72294 -13.62875,3.97007 -4.43202,0.17613 -5.71883,0.0294 -8.59964,-0.98068 z"
     id="path4542"
     inkscape:connector-curvature="0" /><path
     style="opacity:0;fill:#1f4e8e;fill-opacity:1;stroke-width:0.5211907"
     d="m 108.5962,490.45276 c -6.01854,-2.11019 -8.24408,-3.82934 -19.33372,-14.93458 -9.32916,-9.34229 -10.97642,-11.23897 -12.58565,-14.49144 -4.28866,-8.66792 -3.64002,-19.35567 1.63155,-26.88308 0.8511,-1.21532 43.31168,-43.95679 94.35683,-94.98106 51.04516,-51.02426 92.80938,-93.00528 92.80938,-93.29115 0,-0.28587 -42.09123,-42.61983 -93.53607,-94.07547 C 78.64623,58.484119 78.39781,58.230091 76.62556,54.33135 74.52934,49.719889 74.08698,47.602862 74.12081,42.343964 c 0.0316,-4.920465 1.47533,-9.677021 4.19201,-13.811553 1.13011,-1.719929 6.7058,-7.723275 12.39043,-13.340769 9.20726,-9.0985277 10.7668,-10.4207269 14.28447,-12.1105491 7.77864,-3.73671232 15.52924,-3.73960946 23.41372,-0.00875 3.85909,1.8260782 5.34556,3.2862898 116.56453,114.5052571 111.21898,111.21898 112.67918,112.70545 114.50526,116.56453 3.62199,7.65441 3.70267,15.43819 0.2402,23.1739 -1.61152,3.60039 -3.69044,5.71845 -113.7395,115.88088 -69.71141,69.78322 -113.25101,112.98974 -115.14734,114.26646 -4.09564,2.75743 -7.41015,3.72294 -13.62875,3.97007 -4.43202,0.17613 -5.71883,0.0294 -8.59964,-0.98068 z"
     id="path4544"
     inkscape:connector-curvature="0" /><path
     style="opacity:0;fill:#1f4e8e;fill-opacity:1;stroke-width:0.5211907"
     d="m 108.5962,490.45276 c -6.01854,-2.11019 -8.24408,-3.82934 -19.33372,-14.93458 -9.32916,-9.34229 -10.97642,-11.23897 -12.58565,-14.49144 -4.28866,-8.66792 -3.64002,-19.35567 1.63155,-26.88308 0.8511,-1.21532 43.31168,-43.95679 94.35683,-94.98106 51.04516,-51.02426 92.80938,-93.00528 92.80938,-93.29115 0,-0.28587 -42.09123,-42.61983 -93.53607,-94.07547 C 78.64623,58.484119 78.39781,58.230091 76.62556,54.33135 74.52934,49.719889 74.08698,47.602862 74.12081,42.343964 c 0.0316,-4.920465 1.47533,-9.677021 4.19201,-13.811553 1.13011,-1.719929 6.7058,-7.723275 12.39043,-13.340769 9.20726,-9.0985277 10.7668,-10.4207269 14.28447,-12.1105491 7.77864,-3.73671232 15.52924,-3.73960946 23.41372,-0.00875 3.85909,1.8260782 5.34556,3.2862898 116.56453,114.5052571 111.21898,111.21898 112.67918,112.70545 114.50526,116.56453 3.62199,7.65441 3.70267,15.43819 0.2402,23.1739 -1.61152,3.60039 -3.69044,5.71845 -113.7395,115.88088 -69.71141,69.78322 -113.25101,112.98974 -115.14734,114.26646 -4.09564,2.75743 -7.41015,3.72294 -13.62875,3.97007 -4.43202,0.17613 -5.71883,0.0294 -8.59964,-0.98068 z"
     id="path4546"
     inkscape:connector-curvature="0" /><path
     style="opacity:0;fill:#ff5555;fill-opacity:1;stroke-width:0.5211907"
     d="m 108.5962,490.45276 c -6.01854,-2.11019 -8.24408,-3.82934 -19.33372,-14.93458 -9.32916,-9.34229 -10.97642,-11.23897 -12.58565,-14.49144 -4.28866,-8.66792 -3.64002,-19.35567 1.63155,-26.88308 0.8511,-1.21532 43.31168,-43.95679 94.35683,-94.98106 51.04516,-51.02426 92.80938,-93.00528 92.80938,-93.29115 0,-0.28587 -42.09123,-42.61983 -93.53607,-94.07547 C 78.64623,58.484119 78.39781,58.230091 76.62556,54.33135 74.52934,49.719889 74.08698,47.602862 74.12081,42.343964 c 0.0316,-4.920465 1.47533,-9.677021 4.19201,-13.811553 1.13011,-1.719929 6.7058,-7.723275 12.39043,-13.340769 9.20726,-9.0985277 10.7668,-10.4207269 14.28447,-12.1105491 7.77864,-3.73671232 15.52924,-3.73960946 23.41372,-0.00875 3.85909,1.8260782 5.34556,3.2862898 116.56453,114.5052571 111.21898,111.21898 112.67918,112.70545 114.50526,116.56453 3.62199,7.65441 3.70267,15.43819 0.2402,23.1739 -1.61152,3.60039 -3.69044,5.71845 -113.7395,115.88088 -69.71141,69.78322 -113.25101,112.98974 -115.14734,114.26646 -4.09564,2.75743 -7.41015,3.72294 -13.62875,3.97007 -4.43202,0.17613 -5.71883,0.0294 -8.59964,-0.98068 z"
     id="path4548"
     inkscape:connector-curvature="0" /><path
     style="opacity:1;fill:#1f4e8e;fill-opacity:1;stroke-width:0.5211907"
     d="m 108.5962,490.45276 c -6.01854,-2.11019 -8.24408,-3.82934 -19.33372,-14.93458 -9.32916,-9.34229 -10.97642,-11.23897 -12.58565,-14.49144 -4.28866,-8.66792 -3.64002,-19.35567 1.63155,-26.88308 0.8511,-1.21532 43.31168,-43.95679 94.35683,-94.98106 51.04516,-51.02426 92.80938,-93.00528 92.80938,-93.29115 0,-0.28587 -42.09123,-42.61983 -93.53607,-94.07547 C 78.64623,58.484119 78.39781,58.230091 76.62556,54.33135 74.52934,49.719889 74.08698,47.602862 74.12081,42.343964 c 0.0316,-4.920465 1.47533,-9.677021 4.19201,-13.811553 1.13011,-1.719929 6.7058,-7.723275 12.39043,-13.340769 9.20726,-9.0985277 10.7668,-10.4207269 14.28447,-12.1105491 7.77864,-3.73671232 15.52924,-3.73960946 23.41372,-0.00875 3.85909,1.8260782 5.34556,3.2862898 116.56453,114.5052571 111.21898,111.21898 112.67918,112.70545 114.50526,116.56453 3.62199,7.65441 3.70267,15.43819 0.2402,23.1739 -1.61152,3.60039 -3.69044,5.71845 -113.7395,115.88088 -69.71141,69.78322 -113.25101,112.98974 -115.14734,114.26646 -4.09564,2.75743 -7.41015,3.72294 -13.62875,3.97007 -4.43202,0.17613 -5.71883,0.0294 -8.59964,-0.98068 z"
     id="path4550"
     inkscape:connector-curvature="0" /><rect
     style="opacity:1;fill:#1f4e8e;fill-opacity:1;stroke:#000000;stroke-width:0.65008366;stroke-linecap:round;stroke-linejoin:round;stroke-miterlimit:4;stroke-dasharray:none;stroke-opacity:1"
     id="rect4500"
     width="53.161018"
     height="492.59854"
     x="375.60046"
     y="0.29644087" /></svg>