<?xml version="1.0" encoding="UTF-8" standalone="no"?>
<!-- Generator: Adobe Illustrator 19.0.0, SVG Export Plug-In . SVG Version: 6.00 Build 0)  -->

<svg
   xmlns:dc="http://purl.org/dc/elements/1.1/"
   xmlns:cc="http://creativecommons.org/ns#"
   xmlns:rdf="http://www.w3.org/1999/02/22-rdf-syntax-ns#"
   xmlns:svg="http://www.w3.org/2000/svg"
   xmlns="http://www.w3.org/2000/svg"
   xmlns:sodipodi="http://sodipodi.sourceforge.net/DTD/sodipodi-0.dtd"
   xmlns:inkscape="http://www.inkscape.org/namespaces/inkscape"
   version="1.1"
   id="Capa_1"
   x="0px"
   y="0px"
   viewBox="0 0 468.293 468.293"
   style="enable-background:new 0 0 468.293 468.293;"
   xml:space="preserve"
   sodipodi:docname="pasajero2.svg"
   inkscape:version="0.92.1 r15371"><metadata
     id="metadata53"><rdf:RDF><cc:Work
         rdf:about=""><dc:format>image/svg+xml</dc:format><dc:type
           rdf:resource="http://purl.org/dc/dcmitype/StillImage" /></cc:Work></rdf:RDF></metadata><defs
     id="defs51" /><sodipodi:namedview
     pagecolor="#ffffff"
     bordercolor="#666666"
     borderopacity="1"
     objecttolerance="10"
     gridtolerance="10"
     guidetolerance="10"
     inkscape:pageopacity="0"
     inkscape:pageshadow="2"
     inkscape:window-width="1920"
     inkscape:window-height="1017"
     id="namedview49"
     showgrid="false"
     inkscape:zoom="1.007916"
     inkscape:cx="266.56053"
     inkscape:cy="316.35823"
     inkscape:window-x="-8"
     inkscape:window-y="-8"
     inkscape:window-maximized="1"
     inkscape:current-layer="Capa_1" /><path
     style="fill:#64798a"
     d="m 85.218,23.535 v 421.222 c 0,12.998 10.537,23.535 23.535,23.535 H 356.24 c 12.998,0 23.535,-10.537 23.535,-23.535 V 23.535 C 379.775,10.537 369.238,0 356.24,0 H 108.754 C 95.755,0 85.218,10.537 85.218,23.535 Z"
     id="path2"
     inkscape:connector-curvature="0" /><rect
     x="113.438"
     y="28.222"
     style="fill:#ebf0f3"
     width="238.142"
     height="411.84799"
     id="rect4" /><g
     id="g10"
     transform="translate(50)"><path
       style="fill:#2f4859"
       d="m 229.979,158.099 v -0.01 c 0,-5.443 -4.412,-9.855 -9.855,-9.855 h -75.243 c -5.443,0 -9.855,4.412 -9.855,9.855 v 0 L 92.094,201.02 c -5.51,5.51 -5.51,14.443 0,19.953 v 0 c 5.51,5.51 14.443,5.51 19.953,0 l 22.98,-22.978 v 106.042 c 0,3.897 3.159,7.055 7.055,7.055 h 0.003 v 83.846 c 0,7.027 5.696,12.723 12.723,12.723 v 0 c 7.027,0 12.723,-5.696 12.723,-12.723 v -83.846 h 29.949 v 83.846 c 0,7.027 5.696,12.723 12.723,12.723 v 0 c 7.027,0 12.723,-5.696 12.723,-12.723 v -83.846 0 c 3.896,0 7.055,-3.159 7.055,-7.055 V 198.005 l 22.968,22.968 c 5.51,5.51 14.443,5.51 19.953,0 v 0 c 5.51,-5.51 5.51,-14.443 0,-19.953 z"
       id="path6"
       inkscape:connector-curvature="0" /><path
       style="fill:#2f4859"
       d="m 182.503,134.711 c 20.456,0 37.039,-16.584 37.039,-37.04 0,-20.456 -16.583,-37.04 -37.039,-37.04 -20.457,0 -37.04,16.584 -37.04,37.04 0,20.456 16.583,37.04 37.04,37.04 z"
       id="path8"
       inkscape:connector-curvature="0" /></g><g
     id="g18" /><g
     id="g20" /><g
     id="g22" /><g
     id="g24" /><g
     id="g26" /><g
     id="g28" /><g
     id="g30" /><g
     id="g32" /><g
     id="g34" /><g
     id="g36" /><g
     id="g38" /><g
     id="g40" /><g
     id="g42" /><g
     id="g44" /><g
     id="g46" /></svg>