<?xml version="1.0" encoding="iso-8859-1"?>
<!-- Generator: Adobe Illustrator 19.0.0, SVG Export Plug-In . SVG Version: 6.00 Build 0)  -->
<svg version="1.1" id="Capa_1" xmlns="http://www.w3.org/2000/svg" xmlns:xlink="http://www.w3.org/1999/xlink" x="0px" y="0px"
	 viewBox="0 0 468.293 468.293" style="enable-background:new 0 0 468.293 468.293;" xml:space="preserve">
<path style="fill:#64798A;" d="M35.218,23.535v421.222c0,12.998,10.537,23.535,23.535,23.535H306.24
	c12.998,0,23.535-10.537,23.535-23.535V23.535C329.775,10.537,319.238,0,306.24,0H58.754C45.755,0,35.218,10.537,35.218,23.535z"/>
<rect x="63.438" y="28.222" style="fill:#EBF0F3;" width="238.142" height="411.848"/>
<g>
	<path style="fill:#2F4859;" d="M229.979,158.099v-0.01c0-5.443-4.412-9.855-9.855-9.855h-75.243c-5.443,0-9.855,4.412-9.855,9.855
		l0,0L92.094,201.02c-5.51,5.51-5.51,14.443,0,19.953l0,0c5.51,5.51,14.443,5.51,19.953,0l22.98-22.978v106.042
		c0,3.897,3.159,7.055,7.055,7.055h0.003v83.846c0,7.027,5.696,12.723,12.723,12.723h0c7.027,0,12.723-5.696,12.723-12.723v-83.846
		h29.949v83.846c0,7.027,5.696,12.723,12.723,12.723h0c7.027,0,12.723-5.696,12.723-12.723v-83.846h0
		c3.896,0,7.055-3.159,7.055-7.055V198.005l22.968,22.968c5.51,5.51,14.443,5.51,19.953,0l0,0c5.51-5.51,5.51-14.443,0-19.953
		L229.979,158.099z"/>
	<path style="fill:#2F4859;" d="M182.503,134.711c20.456,0,37.039-16.584,37.039-37.04s-16.583-37.04-37.039-37.04
		c-20.457,0-37.04,16.584-37.04,37.04S162.046,134.711,182.503,134.711z"/>
</g>
<g>
	<polygon style="fill:#E56353;" points="433.074,122.236 394.532,67.473 355.989,122.236 378.944,122.236 378.944,199.464 
		410.12,199.464 410.12,122.236 	"/>
	<polygon style="fill:#E56353;" points="355.989,346.057 394.532,400.82 433.074,346.057 410.12,346.057 410.12,268.829 
		378.943,268.829 378.943,346.057 	"/>
</g>
<g>
</g>
<g>
</g>
<g>
</g>
<g>
</g>
<g>
</g>
<g>
</g>
<g>
</g>
<g>
</g>
<g>
</g>
<g>
</g>
<g>
</g>
<g>
</g>
<g>
</g>
<g>
</g>
<g>
</g>
</svg>
