<?xml version="1.0"?>
<svg xmlns="http://www.w3.org/2000/svg" xmlns:xlink="http://www.w3.org/1999/xlink" version="1.1" id="Capa_1" x="0px" y="0px" viewBox="0 0 58 58" style="enable-background:new 0 0 58 58;" xml:space="preserve" width="512px" height="512px" class=""><g><g>
	<g>
		<polygon style="fill:#2196F3" points="46.5,4 46.5,8 39.5,8 39.5,4 15.5,4 15.5,8 8.5,8 8.5,4 0.5,4 0.5,15 54.5,15 54.5,4   " data-original="#F05565" class="" data-old_color="#F05565"/>
		<polygon style="fill:#FFFFFF" points="8.5,15 0.5,15 0.5,58 54.5,58 54.5,15 46.5,15 39.5,15 15.5,15   " data-original="#EFEBDE" class="" data-old_color="#FFFFFF"/>
		<path style="fill:#D5D0BB" d="M37.5,22h-2h-7h-2h-7h-2h-9v9v2v7v2v9h9h2h7h2h7h2h9v-9v-2v-7v-2v-9H37.5z M28.5,24h7v7h-7V24z     M35.5,40h-7v-7h7V40z M19.5,33h7v7h-7V33z M19.5,24h7v7h-7V24z M10.5,24h7v7h-7V24z M10.5,33h7v7h-7V33z M17.5,49h-7v-7h7V49z     M26.5,49h-7v-7h7V49z M35.5,49h-7v-7h7V49z M44.5,49h-7v-7h7V49z M44.5,40h-7v-7h7V40z M37.5,31v-7h7v7H37.5z" data-original="#D5D0BB" class=""/>
		<rect x="8.5" style="fill:#36495E" width="7" height="8" data-original="#36495E" class=""/>
		<rect x="39.5" style="fill:#36495E" width="7" height="8" data-original="#36495E" class=""/>
		<rect x="19.5" y="33" style="fill:#F44336" width="7" height="7" data-original="#7F6E5D" class="" data-old_color="#D50000"/>
	</g>
	<g>
		<circle style="fill:#26B999" cx="45.5" cy="45" r="12" data-original="#26B999" class=""/>
		<path style="fill:#FFFFFF" d="M52.071,39.179c-0.455-0.316-1.077-0.204-1.392,0.25l-5.596,8.04l-3.949-3.242    c-0.426-0.351-1.057-0.288-1.407,0.139c-0.351,0.427-0.289,1.057,0.139,1.407l4.786,3.929c0.18,0.147,0.404,0.227,0.634,0.227    c0.045,0,0.091-0.003,0.137-0.009c0.276-0.039,0.524-0.19,0.684-0.419l6.214-8.929C52.636,40.118,52.524,39.495,52.071,39.179z" data-original="#FFFFFF" class="active-path"/>
	</g>
</g></g> </svg>
